<svg xmlns="http://www.w3.org/2000/svg" viewBox="0 0 226.93 49.61"><title>Fidelity Investments logo</title><path d="M568.82,532.18h-2.16l.43-1.41h7.07l-.42,1.42h-2.16l-1.32,4.4H567.5l1.32-4.4m-15.31-1.42h4l1,3.89h0l1.17-3.89h2.4l-1.76,5.84h-3.92l-1.09-4.15h0l-1.26,4.15h-2.4l1.76-5.82m-28.73,0H529l.2,3.89h0l2.5-3.89h4.21l-1.75,5.83h-2.56l1.31-4.39h0l-3.11,4.4h-2.67l-.38-4.39h0l-1.31,4.38H523l1.75-5.82m-11.07,1.43h-2.15l.43-1.41h7.07l-.43,1.42h-2.16l-1.32,4.39h-2.76l1.32-4.39m-27-1.42H493l-.36,1.18H489l-.35,1.2H492l-.34,1.12h-3.39l-.35,1.16h3.65l-.37,1.18h-6.33l1.76-5.84m-14.49,0h3l.53,3.67,2.79-3.67h2.82l-4.65,5.82h-3.38l-1.16-5.82m-13.93,0h4l1,3.89h0l1.17-3.89h2.4l-1.77,5.82-3.87,0-1.12-4.16h0l-1.23,4.15h-2.4l1.73-5.82m-9.65,0h2.76l-1.76,5.83h-2.76l1.76-5.83m150.52-27.34,1,5.35H591.6l-2.49,9a8.27,8.27,0,0,0-.39,2.13c0,1,.43,1.39,1.94,1.39H593l-1.64,5.83h-9.89c-3.27,0-4.52-1.61-4.52-4a11.94,11.94,0,0,1,.47-3.3l6-21.61h11.1l-1.46,5.26h6M572,527.11h-11.1l6.58-23.69h11.1Zm7.18-26h-11.1l1.81-6.48H581Zm-21.85,26h-11.1l9-32.43h11.1l-9,32.43m-11.15-10.35H530.86a13.76,13.76,0,0,0-.6,3.13,1.5,1.5,0,0,0,1.63,1.69c1.55,0,2.24-.61,2.88-2.91h10.88c-1.38,6.74-9.29,9-14.15,9-6.58,0-11.7-1-11.7-7.35a24.77,24.77,0,0,1,4.09-12.43c2.79-3.7,7.66-5.09,12.13-5.09,6.88,0,11.36,1.43,11.36,7.34a29.61,29.61,0,0,1-1.2,6.56Zm-11.1-8c-1.38,0-2.32,1-2.93,3.35h4.56a7.8,7.8,0,0,0,.3-1.65C537,509.2,536.24,508.81,535.07,508.81Zm-20.24,18.3H504l.77-2.65a11.43,11.43,0,0,1-8,3.22c-3.62,0-5.89-1.74-5.89-5.43a33.75,33.75,0,0,1,4-14.43,9.22,9.22,0,0,1,8.47-4.82c3.14,0,5.46,1.39,6.37,3.13l3.1-11.43h11.1l-9,32.43Zm-8.34-16.65a2.47,2.47,0,0,0-2.54,1.7,16.09,16.09,0,0,0-1.55,5.91,1.64,1.64,0,0,0,1.72,1.7,3.28,3.28,0,0,0,1.89-.56l2.24-7.78A2.22,2.22,0,0,0,506.49,510.46ZM486,527.11h-11.1l6.58-23.69h11.1Zm7.18-26h-11.1l1.81-6.48H495l-1.81,6.48Zm-33.17,26H448.83l9-32.43h23l-2.19,7.7H466.9l-1.5,5.52h11.75l-2,7.08H463.42l-3.35,12.13m-41.5-11.9H427l2.46,1.61H418.19l-5,15.75a23.63,23.63,0,0,1-12.89-12.93,23.62,23.62,0,0,1,13.21-30.89,23.35,23.35,0,0,1,28.58,10,23.94,23.94,0,0,1,2.23,19.13,23.13,23.13,0,0,1-7.52,11.22l-6.21-10.45,8.64,4.87a.07.07,0,0,0,0-.11l-11.31-9.87,14.63,2.26s.07,0,.07,0l-.09-.08-13.8-4.89,14.34-3.5s0,0,0-.07l-14.71,1,11.52-8.81s-.08-.07-.1,0L426.88,506,434,493.25s0-.08,0,0l-9.33,11.07,1.79-14.54s-.05-.05-.1,0L422,503.82l-3.76-14.54s-.08,0-.1,0l1,15.09-8.86-11.66s-.05,0-.08,0l6.7,12.9-12.67-7s-.07,0-.07.05L415.51,508l-14.39-1.53c-.05,0-.05.07,0,.09l13.95,4.12-13.88,4.12a.07.07,0,0,0,0,.1l14.32-1.69-11.25,9.65s0,0,0,.08l.15-.05,9-4.77,2.12-3.4h2.4l-1.67-1.19,5.57-9-3.29,10.67h0" transform="translate(-398.53 -487.2)" style="fill:#1a1919;fill-rule:evenodd"/><path d="M581.34,532.51a.29.29,0,0,1,0-.26c.09-.3.46-.49,1-.49a2.37,2.37,0,0,1,1,.16.37.37,0,0,1,.16.47H586c.29-1-.36-1.71-3.13-1.71s-4.12.57-4.5,1.84a1,1,0,0,0,.16,1c.68.68,3.73,1,4,1.32a.28.28,0,0,1,0,.27c-.14.47-.8.59-1.37.59a1.67,1.67,0,0,1-1-.23.49.49,0,0,1-.05-.54h-2.57c-.26.9-.37,1.85,3.2,1.84,3,0,4.36-.74,4.71-1.89a1,1,0,0,0-.2-1.07c-.66-.69-3.62-.95-3.94-1.31m32.77-29.09-6,13.13.17-13.13H597l2.15,23.69c-.27,1.39-.73,2.17-1.59,2.55a11,11,0,0,1-3.82.31h-.14l-1.77,6.44h7.58c4.47,0,6.67-2.27,9.85-7.31l16.18-25.69H614.11m-72.58,27.35h6.29l-.35,1.18h-3.62l-.35,1.2h3.39l-.34,1.12h-3.39l-.35,1.16h3.65l-.37,1.18h-6.33l1.76-5.84m-40.08,1.76a.29.29,0,0,1,0-.27c.09-.3.46-.49,1-.49a2.34,2.34,0,0,1,1,.16.37.37,0,0,1,.16.47h2.45c.29-1-.36-1.71-3.13-1.71s-4.12.57-4.5,1.85a1,1,0,0,0,.16,1c.68.68,3.73,1,4,1.32a.28.28,0,0,1,0,.27c-.14.47-.8.59-1.37.59a1.67,1.67,0,0,1-1-.23.49.49,0,0,1-.05-.54h-2.57c-.26.9-.37,1.85,3.2,1.84,3,0,4.36-.74,4.71-1.89a1,1,0,0,0-.19-1.08c-.66-.69-3.62-.95-3.95-1.31" transform="translate(-398.53 -487.2)" style="fill:#1a1919;fill-rule:evenodd"/></svg>