<svg
  xmlns="http://www.w3.org/2000/svg"
  viewBox="-1.396 -1.177 545.2 118.813"
  width="2500"
  height="549"
  role="img"
  aria-label="Fidelity Investments"
>
  <!-- Brand green applied directly -->
  <g fill="#006747">
    <!-- Removed the original white circular background path entirely -->

    <path d="m47.99 66.446h20.15l5.886 3.817h-26.925l-12.084 37.352c-13.35-5.178-25.705-17.172-30.888-30.652-5.525-13.064-5.525-29.477.121-42.596 5.293-13.485 18.005-25.664 31.535-30.667 10.648-4.41 24.896-4.877 36.187-1.406 12.958 3.711 25.193 12.998 32.305 25.122 7.956 13.295 10.191 30.19 5.354 45.363-3.054 10.07-9.347 19.713-18.011 26.609l-14.872-24.781 20.703 11.547c.116 0 .176-.131.116-.251l-27.117-23.41 35.072 5.349c.121 0 .171-.055.171-.116l-.231-.176-33.068-11.596 34.364-8.297c.115 0 .115-.11.055-.171l-35.253 2.295 27.603-20.898c.06-.116-.181-.171-.236-.05l-31.009 15.72 17.117-30.2c0-.045 0-.171-.105-.111l-22.365 26.248 4.294-34.484c0-.065-.126-.125-.241-.065l-10.286 33.484-9.005-34.489c-.06-.055-.181-.116-.246 0l2.481 35.775-21.24-27.644c-.065-.065-.121 0-.181.055l16.067 30.592-30.371-16.594c-.055 0-.176.065-.176.12l27.011 22.18-34.479-3.642c-.121.065-.121.171 0 .226l33.43 9.779-33.249 9.769c-.065.05-.065.171 0 .226l34.298-3.998-26.951 22.892c-.06 0-.116.116 0 .181l.362-.116 21.582-11.301 5.068-8.061h5.761l-3.994-2.822 13.35-21.431-7.875 25.308z"/>

    <!-- Remaining wordmark paths preserved -->
    <path d="m147.436 94.65h-26.906l21.547-76.909h55.146l-5.253 18.252h-28.141l-3.611 13.093h28.146l-4.747 16.8h-28.14z"/>
    <path d="m209.695 94.651h-26.594l15.771-56.186h26.599z"/>
    <path d="m226.912 33.106h-26.594l4.329-15.364h26.594z"/>
    <path d="m430.662 94.651h-26.599l21.547-76.909h26.599z"/>
  </g>
</svg>
